<?xml version="1.0" encoding="utf-8"?>
<!-- Generator: Adobe Illustrator 25.4.1, SVG Export Plug-In . SVG Version: 6.00 Build 0)  -->
<svg version="1.1" xmlns="http://www.w3.org/2000/svg" xmlns:xlink="http://www.w3.org/1999/xlink" x="0px" y="0px"
	 viewBox="0 0 256 256" style="enable-background:new 0 0 256 256;" xml:space="preserve">
<style type="text/css">
	.st0{fill:#FFFF00;stroke:#FFFF00;stroke-width:5;stroke-miterlimit:10;}
</style>
<g id="Ebene_1">
</g>
<g id="Ebene_2">
	<path class="st0" d="M172.89,171.16h-14.02v-32.68h40.19v-11.05h-40.19V90.15h17.53c4.26,0,8.3,1.9,11.01,5.19v0h26.97
		c-28.92-71.08-142.3-65.9-161.64,11.14H34.96v18.37h40.07c6.93-50.5,56.6-66.38,92.89-45.9h-22.4v103.4h21.27
		c-37.28,25.07-77.44-7.59-91.95-45.97l-40.07-0.39l0.2,17.98l17.2,0.59c25.05,71.73,127.46,86.41,161.64,10.75l-29.32,0.2
		l-0.05,0.06C181.64,169.1,177.39,171.16,172.89,171.16z"/>
</g>
</svg>
